<svg id="Capa_1" data-name="Capa 1" xmlns="http://www.w3.org/2000/svg" width="8.29mm" height="8.41mm" viewBox="0 0 23.49 23.85"><title>Sin título-1</title><polygon points="12.88 0 12.88 1 21.95 1 9.12 13.83 9.82 14.54 22.49 1.87 22.49 10.6 23.49 10.6 23.49 0 12.88 0" fill="#fff"/><path d="M17.92,25.51H3.06A3.07,3.07,0,0,1,0,22.45V7.58A3.07,3.07,0,0,1,3.06,4.51h9.7v1H3.06A2.06,2.06,0,0,0,1,7.58V22.45a2.07,2.07,0,0,0,2.06,2.06H17.92A2.06,2.06,0,0,0,20,22.45V13.09h1v9.36A3.07,3.07,0,0,1,17.92,25.51Z" transform="translate(0 -1.67)" fill="#fff"/></svg>