<svg id="Capa_1" data-name="Capa 1" xmlns="http://www.w3.org/2000/svg" width="40" height="40" viewBox="0 0 40 40"><title>Sin título-1</title><rect width="40" height="40" fill="#989797"/><path d="M14.92,33.09V26.54c0-1.11-.24-1.42-1-1.42a3.17,3.17,0,0,0-2,1.09v6.89H10v-6.5c0-1.1-.24-1.46-1-1.46A3,3,0,0,0,7,26.07v7H5v-6.8a6,6,0,0,0-.34-2.4l1.87-.52a2.62,2.62,0,0,1,.34,1.22,3.56,3.56,0,0,1,2.51-1.2,2.46,2.46,0,0,1,2.27,1.39,3.89,3.89,0,0,1,2.83-1.39c1.56,0,2.47.81,2.47,2.77v6.93h-2Z" fill="#fff"/><path d="M22.29,24.75a1.48,1.48,0,0,0-1.63,1.65A1.44,1.44,0,0,0,22.29,28a1.45,1.45,0,0,0,1.63-1.61,1.45,1.45,0,0,0-1.63-1.63m3.93,0.19a2.57,2.57,0,0,1-.73-0.09,2.5,2.5,0,0,1,.62,1.65c0,1.65-1.37,2.9-3.59,2.9a1.84,1.84,0,0,0-1.27.9c0,0.36.13,0.39,2.36,0.39,1.52,0,3.15.77,3.15,2.7s-1.69,3.11-4.21,3.11-4.23-.81-4.23-2.59a3.9,3.9,0,0,1,.19-1h1.95a2,2,0,0,0-.15.67c0,0.88.75,1.37,2.08,1.37s2.25-.6,2.25-1.48S23.75,32.15,22,32.15c-2.55,0-3.11-.51-3.11-1.44s0.79-1.31,1.8-1.63a2.64,2.64,0,0,1-2.15-2.68c0-1.93,1.52-3.2,3.78-3.2a29,29,0,0,1,2.89.49A2.68,2.68,0,0,0,26.92,23l1,1.29a2.33,2.33,0,0,1-1.65.62" fill="#fff"/><path d="M31.51,33.16a7.65,7.65,0,0,1-3.63-1l0.73-1.48a6.63,6.63,0,0,0,3.07,1,1.38,1.38,0,0,0,1.54-1.33c0-.73-0.47-1.1-1.54-1.33l-1.14-.24a2.59,2.59,0,0,1-2.27-2.6c0-1.78,1.42-3,3.52-3a6.5,6.5,0,0,1,3.13.82l-0.67,1.42a4.82,4.82,0,0,0-2.32-.69,1.26,1.26,0,0,0-1.44,1.22c0,0.58.32,0.88,1.27,1.12l1.18,0.3c1.91,0.49,2.42,1.54,2.42,2.64,0,1.91-1.55,3.22-3.84,3.22" fill="#fff"/></svg>